<svg xmlns="http://www.w3.org/2000/svg" viewBox="0 0 171.88 134.51"><defs><style>.cls-1{fill:none;}.cls-2{fill:#fff;}</style></defs><title>left_arrow_1</title><g id="Layer_2" data-name="Layer 2"><g id="Layer_1-2" data-name="Layer 1"><rect class="cls-1" width="171.88" height="134.51"/><g id="Layer_1-2-2" data-name="Layer 1-2"><path class="cls-2" d="M157.52,52.74H63.25L89.48,26.52a3.27,3.27,0,0,0,0-4.62h0a3.23,3.23,0,0,0-2.32-1H57.79a3.23,3.23,0,0,0-2.32,1L12.7,64.66a3.28,3.28,0,0,0,0,4.64l42.77,42.77a3.27,3.27,0,0,0,2.32,1H87.16a3.27,3.27,0,0,0,2.32-1h0a3.27,3.27,0,0,0,0-4.62h0L64.09,82.05h93.43a4.23,4.23,0,0,0,4.23-4.24V57A4.24,4.24,0,0,0,157.52,52.74Z"/></g></g></g></svg>